<svg width="114" height="21" viewBox="0 0 114 21" xmlns="http://www.w3.org/2000/svg"><title>logo_portfolium_blue</title><g fill="#1B64AC" fill-rule="evenodd"><path d="M49.356 0h2.649v2.535c-.469.004-.937-.002-1.405 0-.437.008-.9.162-1.176.517-.277.353-.346.82-.343 1.256.004.679-.001 1.357.003 2.035.973.003 1.946-.001 2.918.003.006.755.002 1.51.003 2.264-.975.003-1.948 0-2.923.003 0 4.055.003 8.111 0 12.167-.993 0-1.985.003-2.976-.001 0-4.053-.007-8.106.003-12.16-.557-.017-1.116-.003-1.673-.008 0-.755-.003-1.51.002-2.265.555-.004 1.11 0 1.666-.003V4.155a4.825 4.825 0 0 1 .363-1.916c.366-.87 1.081-1.6 1.966-1.942.3-.125.625-.17.923-.297M1.215 1.216C2.048.453 3.205.16 4.311.139 5.54.135 6.765.14 7.993.138c1.544.012 3.124.461 4.328 1.455 1.143.91 1.869 2.286 2.084 3.723.16 1.173.081 2.397-.353 3.506a5.79 5.79 0 0 1-2.67 3.028c-.99.533-2.114.789-3.234.822H3.171c-.003 2.702 0 5.405-.002 8.107-1.05.004-2.098.001-3.147.002C.013 15.187.022 9.593.018 4 .02 2.963.433 1.91 1.215 1.216zm1.96 1.752c-.007 2.285-.004 4.57-.001 6.854 1.48.007 2.962.004 4.442.003.982-.013 2.021-.248 2.75-.948.672-.634.992-1.58.952-2.494.031-.93-.316-1.896-1.02-2.522-.683-.622-1.625-.88-2.533-.89-1.53-.01-3.06-.003-4.59-.003zM68.327.735c.344-.197.72-.325 1.1-.431.002 5.383 0 10.767 0 16.15.005.47.04.982.347 1.362.264.293.668.418 1.054.428.5.004 1-.002 1.502.002.001.844.002 1.688 0 2.533-.68.005-1.36 0-2.04.003-.958-.007-1.94-.313-2.651-.973-.591-.553-.958-1.32-1.097-2.111-.097-.51-.096-1.03-.093-1.546V4.692c-.005-.593-.011-1.197.16-1.772.25-.92.878-1.73 1.718-2.185M38.312 3.096c.516-.534 1.206-.875 1.923-1.048.008 1.432-.002 2.864.005 4.296.947.002 1.894-.002 2.841.002.006.755.001 1.51.003 2.265-.949.002-1.897-.002-2.846.002v7.996c.005.442.12.91.436 1.234.287.275.692.402 1.085.403.441 0 .882-.002 1.323 0 .003.844.002 1.689 0 2.534-.694.002-1.39.002-2.085 0-.959-.035-1.936-.387-2.609-1.088-.768-.76-1.114-1.86-1.128-2.923V5.689c.02-.952.37-1.916 1.052-2.593M73.891 2.942c.993-.003 1.985-.001 2.977 0v3.147c-.992.006-1.984.003-2.977.002-.002-1.05-.001-2.1 0-3.149M19.619 5.935c1.419-.117 2.898-.107 4.24.425 1.019.392 1.925 1.098 2.5 2.031.502.826.711 1.8.728 2.758v4.234c.016.946-.132 1.919-.571 2.767-.639 1.238-1.852 2.113-3.177 2.49-1.082.334-2.226.32-3.346.28-1.518-.1-3.074-.654-4.102-1.817-.878-.932-1.224-2.24-1.241-3.495v-4.381c.018-1.168.302-2.379 1.058-3.296.938-1.196 2.43-1.828 3.91-1.996zm.208 2.928c-.629.13-1.247.418-1.673.912-.525.581-.696 1.386-.712 2.148v2.991c.015.765.199 1.565.722 2.148.646.721 1.657.998 2.598.98.892.032 1.845-.137 2.548-.723.659-.539.968-1.407.975-2.24.01-1.002 0-2.003.005-3.004.002-.39-.016-.784-.114-1.164-.167-.682-.601-1.308-1.22-1.657-.939-.545-2.085-.55-3.129-.391zM31.362 7.62c1.032-1.258 2.73-1.82 4.32-1.7v2.692c-.848.027-1.756-.125-2.54.29-1.11.556-1.707 1.815-1.721 3.02-.01 2.952 0 5.904-.006 8.856-.99.006-1.983.003-2.975.002-.003-4.9 0-9.8 0-14.702h2.92c0 .514-.004 1.028.002 1.542M57.111 5.981a9.069 9.069 0 0 1 1.647-.098c1.282-.028 2.6.212 3.718.863 1.115.647 1.98 1.743 2.256 3.012.233.906.166 1.846.175 2.772v3.16c-.022 1.255-.401 2.555-1.292 3.473-.838.916-2.025 1.45-3.235 1.659-.764.146-1.544.112-2.317.112-1.58-.055-3.219-.59-4.311-1.779-.902-.94-1.27-2.266-1.284-3.543v-3.08c.008-.872-.05-1.755.142-2.614a4.61 4.61 0 0 1 1.441-2.547c.84-.774 1.944-1.21 3.06-1.39zm.627 2.865c-.64.115-1.272.387-1.714.876-.558.578-.76 1.41-.757 2.195v3.079c.008.811.263 1.664.875 2.226.675.629 1.636.846 2.536.82.911.029 1.884-.188 2.567-.827.603-.563.863-1.41.861-2.218.005-.972 0-1.944.003-2.917.001-.391-.01-.786-.116-1.165-.165-.68-.593-1.296-1.2-1.652-.914-.542-2.031-.552-3.055-.417zM95.497 7.53c1.385-1.467 3.607-1.96 5.522-1.411 1.06.29 1.968 1.002 2.574 1.91.803-.99 1.927-1.737 3.187-1.986 1.38-.272 2.875-.17 4.14.481 1.213.621 2.07 1.827 2.38 3.142.097.33.087.683.214 1.005v10.106c-1 .007-2 .006-3 0 .004-2.594 0-5.188.002-7.783-.012-.777.057-1.568-.137-2.33-.186-.768-.686-1.484-1.42-1.812-1.059-.48-2.392-.378-3.328.325-.726.546-1.09 1.465-1.1 2.356 0 3.082.003 6.165 0 9.247-.992 0-1.984.003-2.976-.001-.003-2.772 0-5.545 0-8.317.002-.713.008-1.447-.244-2.125-.247-.704-.793-1.306-1.5-1.564-1.101-.404-2.462-.256-3.338.566-.656.618-.906 1.545-.914 2.423-.007 3.006 0 6.011-.004 9.017-.992.004-1.983.003-2.975 0-.003-4.9-.001-9.8-.001-14.701h2.92c-.002.484.002.967-.002 1.451M78.753 6.077c.994.002 1.988 0 2.981.002-.004 3.024.001 6.048-.002 9.073.012.786.194 1.613.716 2.224.402.492 1.006.786 1.627.886.923.15 1.943-.034 2.66-.665.685-.606.976-1.548.976-2.441-.003-3.025.004-6.05-.003-9.074.993-.009 1.987-.003 2.98-.004 0 4.9.002 9.8 0 14.701-.973.003-1.946.003-2.919 0 0-.465-.006-.931.005-1.396-.207.131-.367.32-.56.468-1.014.805-2.335 1.172-3.619 1.11-1.07-.039-2.158-.354-3.008-1.023-.905-.687-1.492-1.741-1.695-2.851-.184-.888-.132-1.799-.138-2.7v-8.31M75.074 7.166c.5-.465 1.137-.754 1.793-.924.008 4.837-.009 9.675.008 14.511-.995.022-1.99.004-2.984.01L73.89 9.841c.015-1 .431-2.005 1.184-2.676"/></g></svg>